PathFileType	4	(X/Y/Z)	SUBJ32_2_walk_RCNL2025.trc
DataRate	CameraRate	NumFrames	NumMarkers	Units	OrigDataRate	OrigDataStartFrame	OrigNumFrames
100	100	11	25	mm	100	1	428
Frame#	Time	R_Shoulder			L_Shoulder			C7			J_Notch			R_Elbow			L_Elbow			R_Wrist			L_Wrist			R_Asis			L_Asis			Sacral			Thoracic			Sternum			R_Thigh_Lateral			R_Knee_Lateral			R_Shank_Lateral			R_Ankle_Lateral			R_Heel			R_Toe			L_Thigh_Lateral			L_Knee_Lateral			L_Shank_Lateral			L_Ankle_Lateral			L_Heel			L_Toe		
		X1	Y1	Z1	X2	Y2	Z2	X3	Y3	Z3	X4	Y4	Z4	X5	Y5	Z5	X6	Y6	Z6	X7	Y7	Z7	X8	Y8	Z8	X9	Y9	Z9	X10	Y10	Z10	X11	Y11	Z11	X12	Y12	Z12	X13	Y13	Z13	X14	Y14	Z14	X15	Y15	Z15	X16	Y16	Z16	X17	Y17	Z17	X18	Y18	Z18	X19	Y19	Z19	X20	Y20	Z20	X21	Y21	Z21	X22	Y22	Z22	X23	Y23	Z23	X24	Y24	Z24	X25	Y25	Z25
1	0.00000000	-2033.803467	1379.095337	-4.131340	-2045.784790	1359.857666	-383.708832	-2084.151611	1443.257690	-187.773270	-1954.794312	1346.187012	-190.221222	-2140.157959	1063.165161	107.841927	-2123.804443	1043.342651	-465.869080	-2108.675659	817.206421	142.140892	-2057.121460	791.347260	-479.319092	-1987.334595	909.580383	-61.886761	-1998.567871	901.780457	-309.770142	-2190.255127	958.694641	-175.250259	-2179.382324	1217.553711	-182.283096	-1885.283936	1115.399048	-185.730316	-1996.128296	555.032837	34.788021	-1982.796875	470.978760	-8.531845	-2050.967529	331.510193	58.701847	NaN	NaN	NaN	NaN	NaN	NaN	NaN	NaN	NaN	-2099.120605	556.668335	-391.262512	-2096.461670	464.669250	-341.315369	-2119.482910	239.703186	-353.119598	-2125.617676	55.105682	-250.028564	-2171.272461	47.865574	-199.038376	-1987.202637	40.473404	-227.995575
2	0.01000000	-2024.270874	1378.090942	-4.764619	-2037.191650	1359.758057	-384.292450	-2074.816406	1442.764404	-188.142166	-1945.751953	1345.327271	-191.053543	-2130.381348	1061.967163	107.009460	-2112.379150	1042.866821	-467.663910	-2099.043701	816.257202	141.327538	-2041.515503	792.422760	-481.009323	-1976.516235	909.801636	-63.088326	-1990.802734	900.765930	-311.194275	-2181.582764	958.107727	-175.186188	-2170.468506	1216.963013	-182.586151	-1876.576416	1114.722412	-187.659256	-1980.170410	556.076050	33.144661	-1967.463745	471.649567	-10.938004	-2030.662476	329.400513	56.778858	-2139.624756	124.226929	-59.451832	-2182.150879	132.893173	-110.958206	-2019.074951	68.895920	-79.686111	-2094.565186	556.685181	-391.052551	-2092.961914	464.492981	-340.667511	-2118.084717	239.835068	-352.596130	-2125.428955	55.432140	-249.415405	-2171.025879	48.374226	-198.406693	-1986.949585	40.340435	-228.083206
3	0.02000000	-2014.695557	1376.989258	-5.315774	-2028.472656	1359.557251	-384.788300	-2065.412109	1442.164429	-188.434875	-1936.621948	1344.379028	-191.795242	-2120.617676	1060.672607	106.210083	-2100.983887	1042.353149	-469.382904	-2089.440796	815.168427	140.483627	-2026.153564	793.392303	-482.663818	-1966.087402	909.774963	-64.254005	-1982.953857	899.695679	-312.586823	-2172.796387	957.417297	-175.093552	-2161.464355	1216.279541	-182.833008	-1867.791504	1113.933838	-189.465378	-1965.090698	556.804565	31.521091	-1952.738525	471.986145	-13.264921	-2010.594604	327.113922	54.844650	-2107.962891	115.288658	-60.800167	-2150.137207	121.392792	-112.586578	-1984.575439	66.857712	-79.568085	-2089.727051	556.560608	-390.836273	-2089.180664	464.228516	-340.059418	-2116.378906	239.868713	-352.059479	-2125.196045	55.754875	-248.736847	-2170.737305	48.868713	-197.683258	-1986.666870	40.215363	-228.118286
4	0.03000000	-2005.077515	1375.790283	-5.784744	-2019.627930	1359.255371	-385.196259	-2055.938721	1441.458008	-188.651352	-1927.403931	1343.342529	-192.446274	-2110.866455	1059.281372	105.443802	-2089.618164	1041.801758	-471.026001	-2079.866882	813.940308	139.609276	-2011.035706	794.255890	-484.282684	-1956.037476	909.503723	-65.381104	-1975.020996	898.570007	-313.947449	-2163.895752	956.623413	-174.972412	-2152.370117	1215.503418	-183.023666	-1858.928955	1113.033691	-191.148529	-1950.890381	557.216736	29.916210	-1938.619019	471.989136	-15.512737	-1990.749146	324.648560	52.899643	-2075.790527	107.315140	-62.053097	-2117.947266	110.865311	-114.184097	-1950.099731	65.230698	-79.871117	-2084.606201	556.295288	-390.614532	-2085.119385	463.876831	-339.491455	-2114.368896	239.805496	-351.510345	-2124.919922	56.073803	-247.993958	-2170.407715	49.349876	-196.870026	-1986.355469	40.098255	-228.100616
5	0.04000000	-1995.416626	1374.494873	-6.171352	-2010.657349	1358.852783	-385.516235	-2046.396118	1440.645752	-188.791412	-1918.097900	1342.218384	-193.006561	-2101.127441	1057.793823	104.710693	-2078.282227	1041.213135	-472.592865	-2070.321777	812.573578	138.704826	-1996.162720	795.013458	-485.866028	-1946.339233	908.995361	-66.463676	-1967.002930	897.389526	-315.275391	-2154.880371	955.726746	-174.822891	-2143.185303	1214.635254	-183.158112	-1849.988281	1112.022583	-192.708405	-1937.571045	557.308716	28.326929	-1925.098877	471.660797	-17.681953	-1971.099854	322.006409	50.945229	-2043.123413	100.310219	-63.212463	-2085.586182	101.311920	-115.748444	-1915.663574	64.010780	-80.592484	-2079.203857	555.891663	-390.389496	-2080.782471	463.440491	-338.964722	-2112.064453	239.649323	-350.950714	-2124.601562	56.389034	-247.190140	-2170.038574	49.819820	-195.972076	-1986.018555	39.989094	-228.030243
6	0.05000000	-1985.712769	1373.104126	-6.475221	-2001.560913	1358.350342	-385.747925	-2036.783936	1439.728760	-188.854691	-1908.703735	1341.008057	-193.475800	-2091.398926	1056.210938	104.010902	-2066.976074	1040.587646	-474.083008	-2060.805115	811.069580	137.770981	-1981.535645	795.664764	-487.414108	-1936.942383	908.262024	-67.492477	-1958.897827	896.155701	-316.568878	-2145.749512	954.728394	-174.645203	-2133.909668	1213.675903	-183.236298	-1840.968018	1110.902222	-194.144379	-1925.132446	557.073608	26.747215	-1912.164673	471.006012	-19.773659	-1951.620972	319.201813	48.983742	-2010.004028	94.280632	-64.282471	-2053.065674	92.732735	-117.274094	-1881.304810	63.195862	-81.720619	-2073.524170	555.356018	-390.165558	-2076.179443	462.924927	-338.481445	-2109.486084	239.408508	-350.384918	-2124.244629	56.701538	-246.332733	-2169.632812	50.282661	-194.999313	-1985.662842	39.887470	-227.908707
7	0.06000000	-1975.965454	1371.620117	-6.695699	-1992.338379	1357.749878	-385.890839	-2027.101807	1438.709351	-188.840546	-1899.220947	1339.714355	-193.853424	-2081.678711	1054.533936	103.344742	-2055.699463	1039.927002	-475.495361	-2051.316467	809.430817	136.808868	-1967.156433	796.209747	-488.927261	-1927.771973	907.320923	-68.455009	-1950.701782	894.870911	-317.825104	-2136.501709	953.630737	-174.439804	-2124.542236	1212.627563	-183.258163	-1831.866577	1109.675781	-195.455490	-1913.567749	556.502380	25.167849	-1899.793579	470.033691	-21.789629	-1932.305908	316.267181	47.017193	-1976.514038	89.230972	-65.270378	-2020.411743	85.122345	-118.752129	-1847.087402	62.801968	-83.225052	-2067.576172	554.700012	-389.950226	-2071.326416	462.339081	-338.045380	-2106.666260	239.097137	-349.820465	-2123.854980	57.013927	-245.434448	-2169.195312	50.745502	-193.967819	-1985.298950	39.791855	-227.740143
8	0.07000000	-1966.173828	1370.046387	-6.831806	-1982.989868	1357.054199	-385.944305	-2017.349121	1437.590820	-188.748001	-1889.648804	1338.341309	-194.138489	-2071.963867	1052.765747	102.712730	-2044.452515	1039.233032	-476.828491	-2041.854919	807.660858	135.820076	-1953.027832	796.648407	-490.406006	-1918.731812	906.194275	-69.335457	-1942.409790	893.538940	-319.040009	-2127.134521	952.437134	-174.207306	-2115.082031	1211.493042	-183.223541	-1822.680786	1108.348022	-196.640503	-1902.857910	555.585083	23.577250	-1887.950562	468.758087	-23.732260	-1913.180054	313.255768	45.047836	-1942.784790	85.155243	-66.188156	-1987.675781	78.465302	-120.171616	-1813.103149	62.876999	-85.050903	-2061.377686	553.943054	-389.754364	-2066.247070	461.696136	-337.662231	-2103.652588	238.735947	-349.268585	-2123.440674	57.330833	-244.513672	-2168.732910	51.219444	-192.900375	-1984.939697	39.699318	-227.532608
9	0.08000000	-1956.336914	1368.387817	-6.882211	-1973.515259	1356.267334	-385.907379	-2007.524902	1436.378540	-188.575745	-1879.986328	1336.894653	-194.329544	-2062.250000	1050.909912	102.115608	-2033.235107	1038.509155	-478.080292	-2032.419189	805.764801	134.806702	-1939.154114	796.981110	-491.850861	-1909.712646	904.907166	-70.116577	-1934.014160	892.165039	-320.208496	-2117.645264	951.152771	-173.948608	-2105.527344	1210.277222	-183.132294	-1813.406616	1106.925781	-197.697968	-1892.965454	554.314392	21.963242	-1876.586060	467.199585	-25.604340	-1894.303467	310.240509	43.081959	-1909.004150	82.027206	-67.054848	-1954.951416	72.734283	-121.522568	-1779.474487	63.502548	-87.120949	-2054.956543	553.112610	-389.592133	-2060.973389	461.013489	-337.339600	-2100.503906	238.351730	-348.743896	-2123.012451	57.659088	-243.593185	-2168.253662	51.720161	-191.825165	-1984.597534	39.606194	-227.299500
10	0.09000000	-1946.453003	1366.650879	-6.845250	-1963.915039	1355.395142	-385.778992	-1997.628052	1435.079102	-188.322021	-1870.232178	1335.382446	-194.424652	-2052.531250	1048.971924	101.554352	-2022.047607	1037.759766	-479.248077	-2023.007324	803.749237	133.771362	-1925.540527	797.208771	-493.262405	-1900.603516	903.485962	-70.783478	-1925.505981	890.755981	-321.324615	-2108.030518	949.784607	-173.664856	-2095.876221	1208.985840	-182.984177	-1804.039185	1105.418701	-198.626358	-1883.826782	552.689331	20.315226	-1865.635010	465.385376	-27.408607	-1875.761108	307.305634	41.133518	-1875.415771	79.792480	-67.898590	-1922.385376	67.889732	-122.800224	-1746.356445	64.782974	-89.343933	-2048.353271	552.242981	-389.479492	-2055.543945	460.312134	-337.086243	-2097.286865	237.975464	-348.263123	-2122.581055	58.008137	-242.697189	-2167.766113	52.267719	-190.772110	-1984.281860	39.508926	-227.059021
11	0.10000000	-1936.519653	1364.843994	-6.718991	-1954.189575	1354.445801	-385.557922	-1987.656738	1433.701782	-187.984680	-1860.384766	1333.814453	-194.421356	-2042.801636	1046.958862	101.030174	-2010.890381	1036.990967	-480.328522	-2013.616638	801.622894	132.717182	-1912.193665	797.333282	-494.641068	-1891.305786	901.955322	-71.327599	-1916.874390	889.320190	-322.382141	-2098.285645	948.341614	-173.357422	-2086.125977	1207.626953	-182.779037	-1794.572388	1103.838745	-199.424240	-1875.345093	550.719727	18.626295	-1855.016113	463.349731	-29.147141	-1857.637695	304.530182	39.224922	-1842.309570	78.366379	-68.756111	-1890.180420	63.879383	-124.009827	-1713.936646	66.823090	-91.627144	-2041.617920	551.372253	-389.431976	-2049.999756	459.614960	-336.910858	-2094.067627	237.639313	-347.842987	-2122.155273	58.390633	-241.847641	-2167.276855	52.885433	-189.767288	-1983.997559	39.404728	-226.830750
